<svg width="320" height="320" viewBox="0 0 320 320" fill="none" xmlns="http://www.w3.org/2000/svg">
  <defs>
    <linearGradient id="bodyFill" x1="88" y1="86" x2="230" y2="240" gradientUnits="userSpaceOnUse">
      <stop stop-color="#AEEBFF"/>
      <stop offset="0.55" stop-color="#67CDF7"/>
      <stop offset="1" stop-color="#309BE5"/>
    </linearGradient>
    <radialGradient id="bodyLight" cx="0" cy="0" r="1" gradientUnits="userSpaceOnUse" gradientTransform="translate(126 126) rotate(14) scale(82 56)">
      <stop stop-color="#F3FDFF" stop-opacity="0.9"/>
      <stop offset="1" stop-color="#F3FDFF" stop-opacity="0"/>
    </radialGradient>
    <filter id="softShadow" x="26" y="63" width="268" height="198" filterUnits="userSpaceOnUse" color-interpolation-filters="sRGB">
      <feFlood flood-opacity="0" result="BackgroundImageFix"/>
      <feColorMatrix in="SourceAlpha" type="matrix" values="0 0 0 0 0 0 0 0 0 0 0 0 0 0 0 0 0 0 127 0" result="hardAlpha"/>
      <feOffset dy="10"/>
      <feGaussianBlur stdDeviation="12"/>
      <feColorMatrix type="matrix" values="0 0 0 0 0.0823529 0 0 0 0 0.4 0 0 0 0 0.67451 0 0 0 0.16 0"/>
      <feBlend mode="normal" in2="BackgroundImageFix" result="effect1_dropShadow_1_1"/>
      <feBlend mode="normal" in="SourceGraphic" in2="effect1_dropShadow_1_1" result="shape"/>
    </filter>
  </defs>

  <g filter="url(#softShadow)">
    <path d="M74 168C74 122 109 91 162 91C214 91 246 119 246 162C246 205 215 232 162 232C108 232 74 210 74 168Z" fill="url(#bodyFill)"/>
    <path d="M87 158C92 124 120 102 163 102C202 102 229 123 232 157C220 145 203 140 184 140C154 140 128 149 108 166C100 173 94 181 90 191C88 181 86 170 87 158Z" fill="url(#bodyLight)"/>

    <path d="M98 153C107 142 127 139 143 151" stroke="white" stroke-width="9" stroke-linecap="round"/>
    <path d="M103 154C112 148 128 147 139 153" stroke="#177ECC" stroke-width="4.8" stroke-linecap="round"/>
    <path d="M169 149C181 138 200 138 213 149" stroke="white" stroke-width="8.6" stroke-linecap="round"/>
    <path d="M174 150C184 145 199 145 209 150" stroke="#177ECC" stroke-width="4.6" stroke-linecap="round"/>

    <path d="M124 187C135 203 153 211 172 208C184 206 195 199 202 188" stroke="white" stroke-width="5.8" stroke-linecap="round"/>
    <path d="M136 189C146 198 161 201 174 197C181 195 187 191 191 186" stroke="#2291D9" stroke-opacity="0.26" stroke-width="2.8" stroke-linecap="round"/>
  </g>
</svg>
