<svg width="320" height="320" viewBox="0 0 320 320" fill="none" xmlns="http://www.w3.org/2000/svg">
  <defs>
    <radialGradient id="buddyAura" cx="0" cy="0" r="1" gradientUnits="userSpaceOnUse" gradientTransform="translate(160 160) rotate(90) scale(118)">
      <stop stop-color="#F7FCFF"/>
      <stop offset="1" stop-color="#DFF2FF"/>
    </radialGradient>
    <linearGradient id="buddyBody" x1="86" y1="66" x2="243" y2="273" gradientUnits="userSpaceOnUse">
      <stop stop-color="#7ED5FF"/>
      <stop offset="0.58" stop-color="#49B8F0"/>
      <stop offset="1" stop-color="#228DDB"/>
    </linearGradient>
    <linearGradient id="buddyArm" x1="57" y1="144" x2="270" y2="185" gradientUnits="userSpaceOnUse">
      <stop stop-color="#85DBFF"/>
      <stop offset="1" stop-color="#2393E0"/>
    </linearGradient>
    <linearGradient id="buddyBook" x1="92" y1="157" x2="147" y2="216" gradientUnits="userSpaceOnUse">
      <stop stop-color="#FFF9E8"/>
      <stop offset="1" stop-color="#FFD97B"/>
    </linearGradient>
    <linearGradient id="buddyPencil" x1="213" y1="126" x2="254" y2="170" gradientUnits="userSpaceOnUse">
      <stop stop-color="#FFF1A8"/>
      <stop offset="0.65" stop-color="#FFC945"/>
      <stop offset="1" stop-color="#F59E0B"/>
    </linearGradient>
    <filter id="buddyShadow" x="29" y="42" width="265" height="245" filterUnits="userSpaceOnUse" color-interpolation-filters="sRGB">
      <feFlood flood-opacity="0" result="BackgroundImageFix"/>
      <feColorMatrix in="SourceAlpha" type="matrix" values="0 0 0 0 0 0 0 0 0 0 0 0 0 0 0 0 0 0 127 0" result="hardAlpha"/>
      <feOffset dy="12"/>
      <feGaussianBlur stdDeviation="12"/>
      <feColorMatrix type="matrix" values="0 0 0 0 0.0627451 0 0 0 0 0.360784 0 0 0 0 0.611765 0 0 0 0.18 0"/>
      <feBlend mode="normal" in2="BackgroundImageFix" result="effect1_dropShadow_1_1"/>
      <feBlend mode="normal" in="SourceGraphic" in2="effect1_dropShadow_1_1" result="shape"/>
    </filter>
  </defs>

  <circle cx="160" cy="160" r="118" fill="url(#buddyAura)"/>
  <circle cx="86" cy="88" r="18" fill="white" fill-opacity="0.34"/>
  <circle cx="239" cy="232" r="22" fill="white" fill-opacity="0.24"/>

  <g filter="url(#buddyShadow)">
    <path d="M148 58C166 47 188 49 201 63C211 73 215 86 214 101C229 108 241 120 248 136C257 157 258 181 250 203C238 236 205 258 168 261C129 263 92 242 76 210C64 185 64 155 77 131C87 112 103 99 121 93C120 79 129 68 148 58Z" fill="url(#buddyBody)"/>
    <path d="M150 63C159 55 174 55 184 62C195 70 198 83 194 93C184 91 173 90 162 90C151 90 141 91 131 94C127 82 136 70 150 63Z" fill="#9AE5FF"/>
    <path d="M136 84C154 79 173 79 191 84" stroke="#2E9FE4" stroke-width="4" stroke-linecap="round" opacity="0.35"/>

    <path d="M96 155C81 156 68 164 58 178C50 189 49 199 56 205C64 213 78 210 91 201C102 194 110 183 115 171L96 155Z" fill="url(#buddyArm)"/>
    <path d="M222 145C236 144 250 151 262 163C271 173 274 184 269 192C263 201 249 201 237 193C225 184 215 172 208 158L222 145Z" fill="url(#buddyArm)"/>

    <path d="M110 203C93 214 80 230 74 249C72 258 78 266 89 266H118C126 266 132 261 134 253C138 234 130 217 110 203Z" fill="#37A6E6"/>
    <path d="M188 204C206 214 218 229 224 248C227 258 220 266 210 266H182C174 266 168 261 166 253C163 234 170 217 188 204Z" fill="#2A98DE"/>

    <ellipse cx="128" cy="132" rx="24" ry="29" transform="rotate(10 128 132)" fill="white"/>
    <ellipse cx="182" cy="132" rx="24" ry="29" transform="rotate(-10 182 132)" fill="white"/>
    <ellipse cx="134" cy="137" rx="6.5" ry="9.5" transform="rotate(10 134 137)" fill="#197FCE"/>
    <ellipse cx="176" cy="137" rx="6.5" ry="9.5" transform="rotate(-10 176 137)" fill="#197FCE"/>
    <ellipse cx="136" cy="133" rx="2" ry="3" transform="rotate(10 136 133)" fill="white"/>
    <ellipse cx="174" cy="133" rx="2" ry="3" transform="rotate(-10 174 133)" fill="white"/>

    <path d="M128 171C140 180 155 183 170 180C178 179 186 175 192 170" stroke="white" stroke-width="5" stroke-linecap="round"/>
    <path d="M136 188C148 193 162 194 175 190" stroke="#C8F1FF" stroke-width="4" stroke-linecap="round" opacity="0.88"/>

    <path d="M100 157C99 168 101 180 107 192C113 204 121 212 132 216C138 218 145 214 146 207C149 193 146 177 138 164C132 154 121 147 109 146C104 146 101 151 100 157Z" fill="url(#buddyBook)"/>
    <path d="M108 153C118 154 127 159 133 168C140 178 143 190 141 202" stroke="#F5B530" stroke-width="3.4" stroke-linecap="round"/>
    <path d="M108 163C118 164 126 170 131 178" stroke="white" stroke-width="3" stroke-linecap="round" opacity="0.8"/>
    <path d="M108 174C116 175 123 180 128 187" stroke="white" stroke-width="3" stroke-linecap="round" opacity="0.72"/>

    <path d="M220 139L243 119C247 116 253 116 257 120C261 124 261 130 257 134L234 154L220 139Z" fill="url(#buddyPencil)"/>
    <path d="M239 123L248 114L261 127L252 136L239 123Z" fill="#F59E0B"/>
    <path d="M220 139L214 145L228 159L234 153L220 139Z" fill="#F6D7B7"/>
    <path d="M214 145L208 151L215 154L228 159L214 145Z" fill="#3A4A5A"/>

    <circle cx="203" cy="99" r="8" fill="#AEE9FF" opacity="0.9"/>
    <path d="M111 110C119 105 128 102 138 101" stroke="#B7EDFF" stroke-width="4.2" stroke-linecap="round"/>
    <path d="M192 102C201 104 208 108 214 115" stroke="#B7EDFF" stroke-width="4.2" stroke-linecap="round"/>
  </g>

  <path d="M89 227C106 241 129 248 151 248" stroke="#90DEFF" stroke-width="8" stroke-linecap="round" opacity="0.5"/>
  <circle cx="92" cy="87" r="5.4" fill="white" fill-opacity="0.58"/>
  <circle cx="243" cy="229" r="5.8" fill="white" fill-opacity="0.5"/>
</svg>
