<svg width="320" height="320" viewBox="0 0 320 320" fill="none" xmlns="http://www.w3.org/2000/svg">
  <defs>
    <radialGradient id="bukaAura" cx="0" cy="0" r="1" gradientUnits="userSpaceOnUse" gradientTransform="translate(160 154) rotate(90) scale(120)">
      <stop stop-color="#F4FBFF"/>
      <stop offset="1" stop-color="#DDF2FF"/>
    </radialGradient>
    <linearGradient id="bukaBody" x1="84" y1="62" x2="241" y2="274" gradientUnits="userSpaceOnUse">
      <stop stop-color="#78D4FF"/>
      <stop offset="0.56" stop-color="#46B8F2"/>
      <stop offset="1" stop-color="#1F8FDD"/>
    </linearGradient>
    <linearGradient id="bukaLimb" x1="59" y1="121" x2="274" y2="214" gradientUnits="userSpaceOnUse">
      <stop stop-color="#83DBFF"/>
      <stop offset="1" stop-color="#2797E1"/>
    </linearGradient>
    <linearGradient id="bukaBelly" x1="132" y1="117" x2="179" y2="219" gradientUnits="userSpaceOnUse">
      <stop stop-color="#DDF7FF" stop-opacity="0.92"/>
      <stop offset="1" stop-color="#8ED8F8" stop-opacity="0"/>
    </linearGradient>
    <linearGradient id="bukaBadge" x1="132" y1="166" x2="176" y2="196" gradientUnits="userSpaceOnUse">
      <stop stop-color="#FFF4BF"/>
      <stop offset="1" stop-color="#FFD66D"/>
    </linearGradient>
    <filter id="bukaShadow" x="28" y="36" width="266" height="253" filterUnits="userSpaceOnUse" color-interpolation-filters="sRGB">
      <feFlood flood-opacity="0" result="BackgroundImageFix"/>
      <feColorMatrix in="SourceAlpha" type="matrix" values="0 0 0 0 0 0 0 0 0 0 0 0 0 0 0 0 0 0 127 0" result="hardAlpha"/>
      <feOffset dy="12"/>
      <feGaussianBlur stdDeviation="12"/>
      <feColorMatrix type="matrix" values="0 0 0 0 0.0666667 0 0 0 0 0.439216 0 0 0 0 0.741176 0 0 0 0.22 0"/>
      <feBlend mode="normal" in2="BackgroundImageFix" result="effect1_dropShadow_1_1"/>
      <feBlend mode="normal" in="SourceGraphic" in2="effect1_dropShadow_1_1" result="shape"/>
    </filter>
  </defs>

  <circle cx="160" cy="160" r="118" fill="url(#bukaAura)"/>
  <circle cx="232" cy="92" r="20" fill="white" fill-opacity="0.36"/>
  <circle cx="88" cy="242" r="24" fill="white" fill-opacity="0.24"/>

  <g filter="url(#bukaShadow)">
    <path d="M142 58C159 43 181 43 194 56C205 67 207 83 201 96C219 99 233 107 243 121C255 138 258 161 254 181C249 208 228 230 199 240C174 249 146 248 119 240C83 229 58 199 57 164C56 135 70 109 96 95C104 91 113 88 123 86C118 73 124 63 142 58Z" fill="url(#bukaBody)"/>
    <path d="M146 60C155 51 171 51 179 60C186 67 188 77 182 87C174 101 157 105 144 97C132 90 132 72 146 60Z" fill="#6DCFFF"/>
    <path d="M190 58C181 70 182 84 191 95C206 90 216 76 212 63C209 53 200 49 190 58Z" fill="#1F8FDD"/>

    <path d="M92 151C72 155 56 164 49 175C42 187 48 198 62 198C76 198 91 190 104 178L99 161C98 157 95 153 92 151Z" fill="url(#bukaLimb)"/>
    <path d="M223 142C239 143 254 153 264 170C271 182 271 194 263 201C254 209 240 206 228 193C219 183 213 171 209 157L223 142Z" fill="url(#bukaLimb)"/>
    <path d="M101 179C88 178 76 180 67 186C58 191 56 201 63 207C72 214 86 212 98 203C106 197 111 189 113 182L101 179Z" fill="#53BDEC"/>
    <path d="M223 186C236 184 248 187 256 194C263 201 263 210 257 216C249 224 236 223 224 215C215 209 209 200 207 192L223 186Z" fill="#49B3EA"/>

    <path d="M109 202C92 211 80 227 75 247C73 257 79 266 90 267H118C126 267 132 261 133 253C135 234 128 216 109 202Z" fill="url(#bukaLimb)"/>
    <path d="M188 203C208 213 219 229 224 248C226 258 220 267 209 267H181C173 267 167 261 166 253C164 233 170 217 188 203Z" fill="url(#bukaLimb)"/>

    <path d="M126 111C146 103 171 103 191 110C206 116 217 128 221 143C227 166 219 191 200 206C176 224 142 226 116 213C92 201 79 174 84 147C88 130 103 119 126 111Z" fill="url(#bukaBelly)"/>

    <ellipse cx="129" cy="131" rx="23" ry="30" transform="rotate(13 129 131)" fill="white"/>
    <ellipse cx="180" cy="129" rx="23" ry="30" transform="rotate(-13 180 129)" fill="white"/>
    <ellipse cx="134" cy="135" rx="6" ry="10" transform="rotate(13 134 135)" fill="#1780D0"/>
    <ellipse cx="175" cy="134" rx="6" ry="10" transform="rotate(-13 175 134)" fill="#1780D0"/>
    <ellipse cx="136" cy="131" rx="2" ry="3" transform="rotate(13 136 131)" fill="white"/>
    <ellipse cx="173" cy="130" rx="2" ry="3" transform="rotate(-13 173 130)" fill="white"/>

    <path d="M120 165C133 177 153 182 173 176C181 174 188 170 194 165" stroke="white" stroke-width="5" stroke-linecap="round"/>
    <path d="M126 164C139 172 157 174 173 169C178 167 183 165 187 162" stroke="#1E91D9" stroke-opacity="0.38" stroke-width="2.4" stroke-linecap="round"/>

    <path d="M150 176L159 167L168 176L162 186H156L150 176Z" fill="url(#bukaBadge)"/>
    <circle cx="159" cy="177" r="2.5" fill="#F5B933"/>

    <path d="M213 119C219 122 223 126 226 132" stroke="#B7ECFF" stroke-width="4.2" stroke-linecap="round" opacity="0.84"/>
    <path d="M96 119C103 115 111 113 120 113" stroke="#B7ECFF" stroke-width="4.2" stroke-linecap="round" opacity="0.84"/>
    <path d="M118 221C130 227 145 230 160 230" stroke="#A9E4FF" stroke-width="4" stroke-linecap="round" opacity="0.7"/>
    <path d="M173 229C184 228 194 225 203 219" stroke="#A9E4FF" stroke-width="4" stroke-linecap="round" opacity="0.6"/>
  </g>

  <path d="M86 229C108 245 136 252 162 249" stroke="#8DDAFF" stroke-width="8" stroke-linecap="round" opacity="0.55"/>
  <circle cx="234" cy="90" r="5.5" fill="white" fill-opacity="0.64"/>
  <circle cx="245" cy="101" r="3.2" fill="white" fill-opacity="0.52"/>
</svg>
