<svg width="320" height="320" viewBox="0 0 320 320" fill="none" xmlns="http://www.w3.org/2000/svg">
  <defs>
    <radialGradient id="waterAura" cx="0" cy="0" r="1" gradientUnits="userSpaceOnUse" gradientTransform="translate(160 160) rotate(90) scale(118)">
      <stop stop-color="#F7FDFF"/>
      <stop offset="1" stop-color="#DDF3FF"/>
    </radialGradient>
    <linearGradient id="waterBody" x1="86" y1="60" x2="242" y2="274" gradientUnits="userSpaceOnUse">
      <stop stop-color="#82D8FF"/>
      <stop offset="0.55" stop-color="#49B8F1"/>
      <stop offset="1" stop-color="#228DDC"/>
    </linearGradient>
    <linearGradient id="waterHands" x1="54" y1="142" x2="266" y2="183" gradientUnits="userSpaceOnUse">
      <stop stop-color="#8AE0FF"/>
      <stop offset="1" stop-color="#2896E1"/>
    </linearGradient>
    <linearGradient id="waterBelly" x1="129" y1="115" x2="180" y2="218" gradientUnits="userSpaceOnUse">
      <stop stop-color="#DFF8FF" stop-opacity="0.95"/>
      <stop offset="1" stop-color="#DFF8FF" stop-opacity="0"/>
    </linearGradient>
    <filter id="waterShadow" x="27" y="38" width="268" height="250" filterUnits="userSpaceOnUse" color-interpolation-filters="sRGB">
      <feFlood flood-opacity="0" result="BackgroundImageFix"/>
      <feColorMatrix in="SourceAlpha" type="matrix" values="0 0 0 0 0 0 0 0 0 0 0 0 0 0 0 0 0 0 127 0" result="hardAlpha"/>
      <feOffset dy="12"/>
      <feGaussianBlur stdDeviation="12"/>
      <feColorMatrix type="matrix" values="0 0 0 0 0.0666667 0 0 0 0 0.380392 0 0 0 0 0.647059 0 0 0 0.18 0"/>
      <feBlend mode="normal" in2="BackgroundImageFix" result="effect1_dropShadow_1_1"/>
      <feBlend mode="normal" in="SourceGraphic" in2="effect1_dropShadow_1_1" result="shape"/>
    </filter>
  </defs>

  <circle cx="160" cy="160" r="118" fill="url(#waterAura)"/>
  <circle cx="92" cy="88" r="18" fill="white" fill-opacity="0.34"/>
  <circle cx="236" cy="230" r="22" fill="white" fill-opacity="0.24"/>

  <g filter="url(#waterShadow)">
    <path d="M143 59C156 43 180 41 194 55C206 66 208 81 203 95C224 98 240 108 250 124C262 143 263 167 257 188C249 218 228 240 200 251C175 260 146 261 119 253C83 243 58 216 55 180C53 153 61 128 79 110C91 98 106 90 124 87C118 75 125 64 143 59Z" fill="url(#waterBody)"/>
    <path d="M145 60C155 50 171 49 181 57C191 65 194 78 190 89C179 86 168 85 157 85C148 85 139 86 130 88C126 77 132 67 145 60Z" fill="#9CE7FF"/>
    <path d="M180 57C186 58 191 62 194 67C198 74 197 82 193 89C186 85 180 80 176 73C172 67 174 60 180 57Z" fill="#2D9FE4" opacity="0.75"/>

    <path d="M93 154C77 156 64 164 54 177C47 188 47 199 55 205C64 212 78 210 90 201C102 193 110 183 115 170L93 154Z" fill="url(#waterHands)"/>
    <path d="M223 144C239 144 252 151 262 162C271 172 274 183 269 191C263 201 250 201 237 194C225 186 214 173 207 159L223 144Z" fill="url(#waterHands)"/>
    <path d="M99 181C88 180 77 183 69 189C61 196 60 205 66 211C74 218 88 216 99 208C107 202 113 193 115 186L99 181Z" fill="#58C1ED"/>
    <path d="M222 187C234 185 245 188 253 194C261 201 261 209 255 216C247 223 234 223 223 216C214 210 208 201 205 194L222 187Z" fill="#4DB6EA"/>

    <path d="M110 202C93 213 80 229 75 248C73 258 79 266 90 266H119C127 266 133 260 134 252C137 233 130 216 110 202Z" fill="#37A7E6"/>
    <path d="M189 203C207 214 219 229 224 248C226 257 220 266 210 266H181C173 266 167 260 166 252C163 233 170 216 189 203Z" fill="#2A98DE"/>

    <path d="M126 109C145 102 170 101 190 108C205 113 217 124 222 139C229 162 223 188 205 205C182 226 148 230 119 217C95 206 79 182 82 156C85 135 101 118 126 109Z" fill="url(#waterBelly)"/>

    <ellipse cx="128" cy="130" rx="24" ry="30" transform="rotate(10 128 130)" fill="white"/>
    <ellipse cx="182" cy="130" rx="24" ry="30" transform="rotate(-10 182 130)" fill="white"/>
    <ellipse cx="134" cy="135" rx="6.5" ry="10" transform="rotate(10 134 135)" fill="#197FCE"/>
    <ellipse cx="176" cy="135" rx="6.5" ry="10" transform="rotate(-10 176 135)" fill="#197FCE"/>
    <ellipse cx="136" cy="131" rx="2" ry="3" transform="rotate(10 136 131)" fill="white"/>
    <ellipse cx="174" cy="131" rx="2" ry="3" transform="rotate(-10 174 131)" fill="white"/>

    <path d="M123 167C136 178 154 182 171 178C180 176 188 172 194 166" stroke="white" stroke-width="5" stroke-linecap="round"/>
    <path d="M130 166C142 173 158 175 172 172C178 170 183 168 187 165" stroke="#2292DA" stroke-opacity="0.35" stroke-width="2.4" stroke-linecap="round"/>

    <path d="M110 109C118 103 127 100 137 99" stroke="#B8EEFF" stroke-width="4.2" stroke-linecap="round"/>
    <path d="M193 100C202 102 210 106 216 113" stroke="#B8EEFF" stroke-width="4.2" stroke-linecap="round"/>
    <path d="M119 221C131 227 145 230 159 230" stroke="#A5E5FF" stroke-width="4" stroke-linecap="round" opacity="0.74"/>
    <path d="M174 228C184 227 194 224 203 219" stroke="#A5E5FF" stroke-width="4" stroke-linecap="round" opacity="0.62"/>
  </g>

  <path d="M89 227C108 243 132 249 156 248" stroke="#8FDFFF" stroke-width="8" stroke-linecap="round" opacity="0.52"/>
  <circle cx="95" cy="86" r="5.5" fill="white" fill-opacity="0.62"/>
  <circle cx="241" cy="228" r="5.6" fill="white" fill-opacity="0.48"/>
</svg>
