<svg width="320" height="320" viewBox="0 0 320 320" fill="none" xmlns="http://www.w3.org/2000/svg">
  <defs>
    <linearGradient id="bodyFill" x1="88" y1="86" x2="230" y2="240" gradientUnits="userSpaceOnUse">
      <stop stop-color="#AEEBFF"/>
      <stop offset="0.55" stop-color="#67CDF7"/>
      <stop offset="1" stop-color="#309BE5"/>
    </linearGradient>
    <radialGradient id="bodyLight" cx="0" cy="0" r="1" gradientUnits="userSpaceOnUse" gradientTransform="translate(126 126) rotate(14) scale(82 56)">
      <stop stop-color="#F3FDFF" stop-opacity="0.9"/>
      <stop offset="1" stop-color="#F3FDFF" stop-opacity="0"/>
    </radialGradient>
    <filter id="softShadow" x="26" y="63" width="268" height="198" filterUnits="userSpaceOnUse" color-interpolation-filters="sRGB">
      <feFlood flood-opacity="0" result="BackgroundImageFix"/>
      <feColorMatrix in="SourceAlpha" type="matrix" values="0 0 0 0 0 0 0 0 0 0 0 0 0 0 0 0 0 0 127 0" result="hardAlpha"/>
      <feOffset dy="10"/>
      <feGaussianBlur stdDeviation="12"/>
      <feColorMatrix type="matrix" values="0 0 0 0 0.0823529 0 0 0 0 0.4 0 0 0 0 0.67451 0 0 0 0.16 0"/>
      <feBlend mode="normal" in2="BackgroundImageFix" result="effect1_dropShadow_1_1"/>
      <feBlend mode="normal" in="SourceGraphic" in2="effect1_dropShadow_1_1" result="shape"/>
    </filter>
  </defs>

  <g filter="url(#softShadow)">
    <path d="M74 168C74 122 109 91 162 91C214 91 246 119 246 162C246 205 215 232 162 232C108 232 74 210 74 168Z" fill="url(#bodyFill)"/>
    <path d="M87 158C92 124 120 102 163 102C202 102 229 123 232 157C220 145 203 140 184 140C154 140 128 149 108 166C100 173 94 181 90 191C88 181 86 170 87 158Z" fill="url(#bodyLight)"/>

    <ellipse cx="122" cy="153" rx="31" ry="33" transform="rotate(6 122 153)" fill="white"/>
    <ellipse cx="190" cy="149" rx="29" ry="31" transform="rotate(-9 190 149)" fill="white"/>
    <ellipse cx="129" cy="157" rx="8.2" ry="12.8" transform="rotate(6 129 157)" fill="#177ECC"/>
    <ellipse cx="184" cy="153" rx="7.4" ry="11.8" transform="rotate(-9 184 153)" fill="#177ECC"/>
    <ellipse cx="131" cy="153" rx="2.4" ry="3.8" transform="rotate(6 131 153)" fill="white"/>
    <ellipse cx="182" cy="149" rx="2.2" ry="3.4" transform="rotate(-9 182 149)" fill="white"/>

    <path d="M128 188C139 199 155 205 171 203C179 202 187 198 194 191" stroke="white" stroke-width="5.2" stroke-linecap="round"/>
    <path d="M136 187C145 193 157 196 168 195C173 194 179 192 184 188" stroke="#2291D9" stroke-opacity="0.28" stroke-width="2.5" stroke-linecap="round"/>
  </g>
</svg>
