<svg width="320" height="320" viewBox="0 0 320 320" fill="none" xmlns="http://www.w3.org/2000/svg">
  <defs>
    <radialGradient id="bgAura" cx="0" cy="0" r="1" gradientUnits="userSpaceOnUse" gradientTransform="translate(160 160) rotate(90) scale(118)">
      <stop stop-color="#F8FDFF"/>
      <stop offset="1" stop-color="#E3F4FF"/>
    </radialGradient>
    <linearGradient id="bodyBlue" x1="92" y1="52" x2="238" y2="282" gradientUnits="userSpaceOnUse">
      <stop stop-color="#8CDFFF"/>
      <stop offset="0.55" stop-color="#4BB9F1"/>
      <stop offset="1" stop-color="#218FDD"/>
    </linearGradient>
    <radialGradient id="bodyGlow" cx="0" cy="0" r="1" gradientUnits="userSpaceOnUse" gradientTransform="translate(132 104) rotate(51.5) scale(82 65)">
      <stop stop-color="#C8F0FF" stop-opacity="0.95"/>
      <stop offset="1" stop-color="#C8F0FF" stop-opacity="0"/>
    </radialGradient>
    <filter id="dropShadow" x="20" y="26" width="282" height="272" filterUnits="userSpaceOnUse" color-interpolation-filters="sRGB">
      <feFlood flood-opacity="0" result="BackgroundImageFix"/>
      <feColorMatrix in="SourceAlpha" type="matrix" values="0 0 0 0 0 0 0 0 0 0 0 0 0 0 0 0 0 0 127 0" result="hardAlpha"/>
      <feOffset dy="12"/>
      <feGaussianBlur stdDeviation="14"/>
      <feColorMatrix type="matrix" values="0 0 0 0 0.0901961 0 0 0 0 0.435294 0 0 0 0 0.709804 0 0 0 0.2 0"/>
      <feBlend mode="normal" in2="BackgroundImageFix" result="effect1_dropShadow_1_1"/>
      <feBlend mode="normal" in="SourceGraphic" in2="effect1_dropShadow_1_1" result="shape"/>
    </filter>
  </defs>

  <circle cx="160" cy="160" r="118" fill="url(#bgAura)"/>
  <circle cx="232" cy="92" r="18" fill="white" fill-opacity="0.34"/>
  <circle cx="91" cy="238" r="22" fill="white" fill-opacity="0.22"/>

  <g filter="url(#dropShadow)">
    <path d="M140 57C157 42 184 43 199 58C212 71 216 88 211 103C230 108 244 119 252 135C263 156 263 181 256 202C246 232 222 255 190 266C161 275 128 271 100 256C70 239 53 210 53 177C53 148 64 122 84 103C95 93 108 86 123 82C119 69 124 59 140 57Z" fill="url(#bodyBlue)"/>
    <path d="M140 57C154 48 173 47 186 53C178 65 178 80 188 91C196 101 208 106 221 104C219 110 216 116 211 121C195 139 168 144 145 136C122 128 108 108 109 87C109 76 114 66 140 57Z" fill="url(#bodyGlow)"/>

    <path d="M95 153C80 155 66 163 55 176C47 186 45 197 52 203C60 211 74 209 87 202C100 194 109 183 114 169L95 153Z" fill="#55C0ED"/>
    <path d="M84 173C72 171 61 174 54 181C48 187 49 196 56 201C65 208 80 206 92 197C100 191 106 183 109 176L84 173Z" fill="#3FAEE8"/>

    <path d="M220 145C235 145 249 152 261 165C271 176 274 188 268 196C261 205 247 204 234 195C221 186 210 173 203 159L220 145Z" fill="#59C5EF"/>
    <path d="M231 141C243 131 258 130 268 138C277 145 277 157 269 165C261 173 247 173 235 166L231 141Z" fill="#6FD1F7"/>

    <path d="M111 203C95 214 83 229 78 247C76 257 82 266 93 266H123C132 266 138 259 139 251C142 233 134 216 111 203Z" fill="#35A5E5"/>
    <path d="M117 205C110 215 108 228 109 241C110 253 101 263 89 266H122C132 266 138 259 139 251C142 233 134 216 117 205Z" fill="#2898DE" fill-opacity="0.34"/>

    <path d="M186 202C204 213 217 228 223 246C226 257 220 266 209 266H179C171 266 165 260 164 252C162 233 168 216 186 202Z" fill="#2A98DE"/>
    <path d="M191 204C200 214 205 228 207 243C208 254 216 263 227 266H179C171 266 165 260 164 252C162 233 168 216 191 204Z" fill="#1C88D5" fill-opacity="0.28"/>

    <ellipse cx="128" cy="129" rx="24" ry="30" transform="rotate(12 128 129)" fill="white"/>
    <ellipse cx="181" cy="128" rx="24" ry="30" transform="rotate(-12 181 128)" fill="white"/>
    <ellipse cx="134" cy="134" rx="6.4" ry="10.2" transform="rotate(12 134 134)" fill="#177ECE"/>
    <ellipse cx="175" cy="133" rx="6.4" ry="10.2" transform="rotate(-12 175 133)" fill="#177ECE"/>
    <ellipse cx="136" cy="130" rx="2" ry="3" transform="rotate(12 136 130)" fill="white"/>
    <ellipse cx="173" cy="129" rx="2" ry="3" transform="rotate(-12 173 129)" fill="white"/>

    <path d="M124 166C137 177 154 181 171 178C179 176 187 172 194 166" stroke="white" stroke-width="5.2" stroke-linecap="round"/>
    <path d="M131 165C143 172 158 175 172 172C178 170 183 168 188 164" stroke="#208FD9" stroke-opacity="0.28" stroke-width="2.6" stroke-linecap="round"/>
  </g>

  <path d="M90 225C108 241 131 248 154 247" stroke="#95E0FF" stroke-width="8" stroke-linecap="round" opacity="0.46"/>
  <circle cx="233" cy="91" r="5.4" fill="white" fill-opacity="0.58"/>
  <circle cx="243" cy="102" r="3.2" fill="white" fill-opacity="0.44"/>
</svg>
