<svg width="720" height="1080" viewBox="0 0 720 1080" fill="none" xmlns="http://www.w3.org/2000/svg">
  <rect width="720" height="1080" fill="#F3F6FB"/>
  <rect x="72" y="68" width="576" height="944" rx="40" fill="white" stroke="#D7E0EC" stroke-width="4"/>
  <rect x="112" y="120" width="220" height="20" rx="10" fill="#DCE7F5"/>
  <rect x="112" y="154" width="156" height="16" rx="8" fill="#EDF3FB"/>
  <rect x="112" y="206" width="496" height="136" rx="28" fill="#F8FBFF" stroke="#E4ECF7" stroke-width="3"/>
  <rect x="144" y="238" width="180" height="18" rx="9" fill="#D7E6FA"/>
  <rect x="144" y="272" width="302" height="14" rx="7" fill="#EAF1FA"/>
  <rect x="144" y="300" width="256" height="14" rx="7" fill="#EAF1FA"/>
  <rect x="202" y="390" width="316" height="316" rx="24" fill="#FFFFFF" stroke="#D9E2EF" stroke-width="8"/>
  <g fill="#111827">
    <rect x="228" y="416" width="88" height="88"/><rect x="246" y="434" width="52" height="52" fill="#fff"/><rect x="258" y="446" width="28" height="28"/>
    <rect x="404" y="416" width="88" height="88"/><rect x="422" y="434" width="52" height="52" fill="#fff"/><rect x="434" y="446" width="28" height="28"/>
    <rect x="228" y="592" width="88" height="88"/><rect x="246" y="610" width="52" height="52" fill="#fff"/><rect x="258" y="622" width="28" height="28"/>
    <rect x="340" y="430" width="18" height="18"/><rect x="372" y="430" width="18" height="18"/><rect x="340" y="462" width="18" height="18"/><rect x="372" y="462" width="50" height="18"/>
    <rect x="340" y="494" width="18" height="18"/><rect x="390" y="494" width="18" height="18"/><rect x="422" y="494" width="18" height="18"/><rect x="340" y="526" width="82" height="18"/>
    <rect x="340" y="558" width="18" height="18"/><rect x="372" y="558" width="18" height="18"/><rect x="404" y="558" width="18" height="18"/><rect x="436" y="558" width="18" height="18"/><rect x="468" y="558" width="24" height="18"/>
    <rect x="340" y="590" width="18" height="18"/><rect x="390" y="590" width="18" height="18"/><rect x="422" y="590" width="70" height="18"/>
    <rect x="340" y="622" width="50" height="18"/><rect x="404" y="622" width="18" height="18"/><rect x="454" y="622" width="38" height="18"/>
    <rect x="340" y="654" width="18" height="18"/><rect x="372" y="654" width="50" height="18"/><rect x="454" y="654" width="18" height="18"/>
  </g>
  <rect x="150" y="748" width="420" height="18" rx="9" fill="#DCE7F5"/>
  <rect x="192" y="786" width="336" height="14" rx="7" fill="#EAF1FA"/>
  <rect x="164" y="866" width="392" height="76" rx="20" fill="#EEF5FF" stroke="#D9E7FA" stroke-width="3"/>
  <circle cx="206" cy="904" r="16" fill="#3B82F6"/>
  <rect x="238" y="892" width="182" height="12" rx="6" fill="#BFD6FB"/>
  <rect x="238" y="916" width="128" height="10" rx="5" fill="#D6E4FA"/>
</svg>